<svg xmlns="http://www.w3.org/2000/svg" width="208.498" height="61.923" viewBox="0 0 208.498 61.923">
    <defs>
        <style>
            .cls-1{fill:#23fb98}.cls-2{fill:#2e3c4f}.cls-3{fill:#fff}.cls-4{fill:url(#linear-gradient)}.cls-5{fill:url(#linear-gradient-2)}
        </style>
        <linearGradient id="linear-gradient" x2="1" y1=".5" y2=".5" gradientUnits="objectBoundingBox">
            <stop offset="0" stop-color="#23fb98"/>
            <stop offset="1" stop-color="#00b8ba"/>
        </linearGradient>
        <linearGradient id="linear-gradient-2" x1=".858" x2="0" y2="1" gradientUnits="objectBoundingBox">
            <stop offset="0" stop-color="#00ff8a"/>
            <stop offset="1" stop-color="#00b8ba"/>
        </linearGradient>
    </defs>
    <g id="Group_1" data-name="Group 1" transform="translate(-16.784 340.525)">
        <g id="Group_1-2" data-name="Group 1" transform="translate(16.784 -340.525)">
            <path id="Path_1" d="M23.078-303.973l.091.091a5.01 5.01 0 0 0 7.084 0 5.01 5.01 0 0 1 7.084 0l.478.478a5.01 5.01 0 0 0 7.084 0l.139-.138a5.008 5.008 0 0 1 7.084 0l.345.345a5.01 5.01 0 0 0 7.084 0l.607-.607a5.009 5.009 0 0 1 7.085 0l1.411 1.411a29.578 29.578 0 0 0 2.983-12.985 29.707 29.707 0 0 0-29.708-29.707 29.707 29.707 0 0 0-29.708 29.707 29.586 29.586 0 0 0 2.731 12.442l1.038-1.037a5.008 5.008 0 0 1 7.088 0z" class="cls-1" data-name="Path 1" transform="translate(-10.97 346.34)"/>
            <path id="Path_2" d="M68.768-300.507l-2.656-2.656a3.76 3.76 0 0 0-5.311 0l-.607.607a6.27 6.27 0 0 1-8.858 0l-.345-.345a3.761 3.761 0 0 0-5.311 0l-.138.138a6.27 6.27 0 0 1-8.858 0l-.478-.478a3.76 3.76 0 0 0-5.311 0 6.272 6.272 0 0 1-8.859 0l-.091-.092a3.761 3.761 0 0 0-5.311 0l-2.309 2.309-.754-1.633a30.715 30.715 0 0 1-2.847-12.967 31 31 0 0 1 30.962-30.962 31 31 0 0 1 30.962 30.962 30.672 30.672 0 0 1-3.109 13.533zm-20.432-6a6.244 6.244 0 0 1 4.429 1.832l.345.345a3.761 3.761 0 0 0 5.311 0l.607-.607a6.269 6.269 0 0 1 8.858 0l.126.125a28.191 28.191 0 0 0 2.127-10.811 28.485 28.485 0 0 0-28.453-28.453 28.485 28.485 0 0 0-28.453 28.453 28.2 28.2 0 0 0 1.909 10.251 6.272 6.272 0 0 1 8.576.266l.092.092a3.761 3.761 0 0 0 5.311 0 6.22 6.22 0 0 1 4.429-1.835 6.222 6.222 0 0 1 4.429 1.835l.478.478a3.726 3.726 0 0 0 2.655 1.1 3.728 3.728 0 0 0 2.655-1.1l.138-.138a6.246 6.246 0 0 1 4.431-1.832z" class="cls-2" data-name="Path 2" transform="translate(-10.724 346.585)"/>
        </g>
        <g id="Group_3" data-name="Group 3" transform="translate(41.834 -334.418)">
            <g id="Group_2" data-name="Group 2">
                <rect id="Rectangle_3" width="9.315" height="45.702" class="cls-3" data-name="Rectangle 3" rx=".418" transform="translate(1.255 1.254)"/>
                <path id="Path_3" d="M50.9-291.072h-8.618a1.607 1.607 0 0 1-1.6-1.6v-45a1.607 1.607 0 0 1 1.6-1.6H50.9a1.606 1.606 0 0 1 1.6 1.6v45a1.606 1.606 0 0 1-1.6 1.6zm-7.711-2.509h6.806v-43.193h-6.809z" class="cls-2" data-name="Path 3" transform="translate(-40.677 339.283)"/>
            </g>
            <path id="Path_4" d="M52.37-332.381h-3.992a.836.836 0 0 1-.836-.836.837.837 0 0 1 .836-.836h3.992a.837.837 0 0 1 .836.836.836.836 0 0 1-.836.836z" class="cls-2" data-name="Path 4" transform="translate(-41.801 338.427)"/>
            <path id="Path_5" d="M52.37-328.005h-3.992a.837.837 0 0 1-.836-.836.837.837 0 0 1 .836-.836h3.992a.837.837 0 0 1 .836.836.837.837 0 0 1-.836.836z" class="cls-2" data-name="Path 5" transform="translate(-41.801 337.711)"/>
            <path id="Path_6" d="M52.37-323.63h-3.992a.836.836 0 0 1-.836-.836.837.837 0 0 1 .836-.836h3.992a.837.837 0 0 1 .836.836.836.836 0 0 1-.836.836z" class="cls-2" data-name="Path 6" transform="translate(-41.801 336.995)"/>
            <path id="Path_7" d="M52.37-319.254h-3.992a.837.837 0 0 1-.836-.836.837.837 0 0 1 .836-.836h3.992a.837.837 0 0 1 .836.836.837.837 0 0 1-.836.836z" class="cls-2" data-name="Path 7" transform="translate(-41.801 336.278)"/>
            <path id="Path_8" d="M52.37-314.879h-3.992a.837.837 0 0 1-.836-.836.837.837 0 0 1 .836-.836h3.992a.837.837 0 0 1 .836.836.837.837 0 0 1-.836.836z" class="cls-2" data-name="Path 8" transform="translate(-41.801 335.562)"/>
            <path id="Path_9" d="M52.37-310.5h-3.992a.837.837 0 0 1-.836-.836.836.836 0 0 1 .836-.836h3.992a.836.836 0 0 1 .836.836.837.837 0 0 1-.836.836z" class="cls-2" data-name="Path 9" transform="translate(-41.801 334.846)"/>
            <path id="Path_10" d="M52.37-306.128h-3.992a.837.837 0 0 1-.836-.836.837.837 0 0 1 .836-.836h3.992a.837.837 0 0 1 .836.836.837.837 0 0 1-.836.836z" class="cls-2" data-name="Path 10" transform="translate(-41.801 334.13)"/>
            <path id="Path_11" d="M52.37-301.752h-3.992a.837.837 0 0 1-.836-.836.836.836 0 0 1 .836-.836h3.992a.836.836 0 0 1 .836.836.837.837 0 0 1-.836.836z" class="cls-2" data-name="Path 11" transform="translate(-41.801 333.414)"/>
            <path id="Path_12" d="M52.37-297.377h-3.992a.837.837 0 0 1-.836-.836.837.837 0 0 1 .836-.836h3.992a.837.837 0 0 1 .836.836.837.837 0 0 1-.836.836z" class="cls-2" data-name="Path 12" transform="translate(-41.801 332.697)"/>
            <path id="Path_13" d="M52.37-293h-3.992a.837.837 0 0 1-.836-.836.836.836 0 0 1 .836-.836h3.992a.836.836 0 0 1 .836.836.837.837 0 0 1-.836.836z" class="cls-2" data-name="Path 13" transform="translate(-41.801 331.981)"/>
        </g>
        <g id="Group_4" data-name="Group 4" transform="translate(19.264 -300.881)">
            <path id="Path_14" d="M67.78-296.045a5.009 5.009 0 0 0-7.085 0l-.607.607a5.01 5.01 0 0 1-7.084 0l-.345-.345a5.008 5.008 0 0 0-7.084 0l-.139.138a5.01 5.01 0 0 1-7.084 0l-.478-.478a5.01 5.01 0 0 0-7.084 0 5.01 5.01 0 0 1-7.084 0l-.091-.091a5.008 5.008 0 0 0-7.084 0l-1.038 1.037a29.694 29.694 0 0 0 1.525 2.884 29.689 29.689 0 0 0 25.452 14.382 29.688 29.688 0 0 0 25.691-14.8 30.15 30.15 0 0 0 1.034-1.927z" class="cls-4" data-name="Path 14" transform="translate(-13.984 298.936)"/>
            <path id="Path_15" d="M42.171-276.9a30.749 30.749 0 0 1-26.526-14.988 31.1 31.1 0 0 1-1.588-3.006l-.368-.794 1.657-1.656a6.22 6.22 0 0 1 4.429-1.835 6.22 6.22 0 0 1 4.429 1.835l.092.092a3.761 3.761 0 0 0 5.311 0 6.22 6.22 0 0 1 4.429-1.835 6.222 6.222 0 0 1 4.429 1.835l.478.478a3.726 3.726 0 0 0 2.655 1.1 3.728 3.728 0 0 0 2.655-1.1l.138-.138a6.271 6.271 0 0 1 8.859 0l.345.345a3.761 3.761 0 0 0 5.311 0l.607-.607a6.269 6.269 0 0 1 8.858 0l2.044 2.043-.391.8a31.83 31.83 0 0 1-1.078 2.009A31.084 31.084 0 0 1 42.171-276.9zm-25.46-18.264c.343.689.706 1.352 1.083 1.976a28.259 28.259 0 0 0 24.378 13.776 28.569 28.569 0 0 0 24.606-14.172c.212-.364.406-.713.587-1.054l-.765-.762a3.761 3.761 0 0 0-5.311 0l-.607.607a6.27 6.27 0 0 1-8.858 0l-.345-.345a3.761 3.761 0 0 0-5.311 0l-.138.138a6.221 6.221 0 0 1-4.429 1.835A6.22 6.22 0 0 1 37.169-295l-.478-.478a3.76 3.76 0 0 0-5.311 0 6.272 6.272 0 0 1-8.859 0l-.091-.092a3.76 3.76 0 0 0-5.311 0z" class="cls-2" data-name="Path 15" transform="translate(-13.689 299.182)"/>
        </g>
        <path id="Path_16" d="M61.838-283.588a5.389 5.389 0 0 1-3.825-1.582l-.287-.286a2.9 2.9 0 0 0-4.1 0l-.115.115a1.254 1.254 0 0 1-1.774 0 1.254 1.254 0 0 1 0-1.774l.115-.115a5.417 5.417 0 0 1 7.651 0l.287.287a2.9 2.9 0 0 0 4.1 0l.5-.5a1.255 1.255 0 0 1 1.774 0 1.255 1.255 0 0 1 0 1.774l-.5.5a5.393 5.393 0 0 1-3.826 1.581z" class="cls-2" data-name="Path 16" transform="translate(-.593 -3.397)"/>
        <path id="Path_17" d="M41.581-281.327a5.393 5.393 0 0 1-3.825-1.582l-.286-.286a2.968 2.968 0 0 0-4.1 0l-.115.115a1.254 1.254 0 0 1-1.774 0 1.254 1.254 0 0 1 0-1.774l.115-.115a5.374 5.374 0 0 1 3.825-1.585 5.373 5.373 0 0 1 3.825 1.585l.286.286a2.905 2.905 0 0 0 4.1 0l.5-.5a1.253 1.253 0 0 1 1.774 0 1.253 1.253 0 0 1 0 1.774l-.5.5a5.391 5.391 0 0 1-3.825 1.582z" class="cls-2" data-name="Path 17" transform="translate(2.723 -3.766)"/>
        <path id="Path_487" d="M114.406-324.586a2.2 2.2 0 0 0-2.2-2.2h-4.337v7.131h-3.956v4.37h3.956v14.274a6.071 6.071 0 0 0 .6 2.9 4.261 4.261 0 0 0 1.633 1.7 6.772 6.772 0 0 0 2.392.808 18.962 18.962 0 0 0 2.876.207q.97 0 1.978-.046a15.75 15.75 0 0 0 1.84-.184v-5.061a8.71 8.71 0 0 1-.966.138c-.338.031-.691.047-1.058.046a2.211 2.211 0 0 1-2.76-1.472 2.208 2.208 0 0 1 0-1.288v-12.017h4.784v-4.37h-4.784z" class="cls-3" data-name="Path 487"/>
        <g id="Group_254" data-name="Group 254">
            <path id="Path_493" d="M121.86-312.825a11.075 11.075 0 0 1 6.467-6.6 13.824 13.824 0 0 1 5.152-.914 14.019 14.019 0 0 1 5.174.914 11.031 11.031 0 0 1 6.487 6.6 14.858 14.858 0 0 1 .889 5.27 14.662 14.662 0 0 1-.889 5.246 11.375 11.375 0 0 1-2.529 4.005 11.026 11.026 0 0 1-3.962 2.552 14.354 14.354 0 0 1-5.174.889 14.152 14.152 0 0 1-5.152-.889 11.054 11.054 0 0 1-3.935-2.552 11.373 11.373 0 0 1-2.528-4.005 14.662 14.662 0 0 1-.89-5.246 14.859 14.859 0 0 1 .89-5.27zm6.042 8.1a7.529 7.529 0 0 0 .96 2.483 5.108 5.108 0 0 0 1.8 1.757 5.5 5.5 0 0 0 2.81.655 5.624 5.624 0 0 0 2.834-.655 5.058 5.058 0 0 0 1.826-1.757 7.552 7.552 0 0 0 .961-2.483 14.184 14.184 0 0 0 .281-2.833 14.5 14.5 0 0 0-.281-2.857 7.287 7.287 0 0 0-.961-2.483 5.34 5.34 0 0 0-1.826-1.757 5.494 5.494 0 0 0-2.834-.679 5.116 5.116 0 0 0-4.613 2.436 7.285 7.285 0 0 0-.96 2.483 14.5 14.5 0 0 0-.281 2.857 14.111 14.111 0 0 0 .282 2.836z" class="cls-5" data-name="Path 493"/>
        </g>
        <path id="Path_490" d="M165.062-307.183q0 3.638-1.2 5.221a4.538 4.538 0 0 1-3.862 1.587 3.57 3.57 0 0 1-3.267-1.448 8.329 8.329 0 0 1-.919-4.393v-11.275a2.183 2.183 0 0 0-2.183-2.161h-4.35v14.633a19.155 19.155 0 0 0 .391 4.025 7.661 7.661 0 0 0 1.356 3.083 6.213 6.213 0 0 0 2.646 1.955 11.437 11.437 0 0 0 4.3.691 9.511 9.511 0 0 0 4.048-.92 7.349 7.349 0 0 0 3.221-2.992h.138v3.8h6.219v-24.274h-6.533z" class="cls-3" data-name="Path 490"/>
        <path id="Path_488" d="M191.4-301.456a4.791 4.791 0 0 1-3.612 1.311 4.623 4.623 0 0 1-2.576-.69 5.142 5.142 0 0 1-1.679-1.772 8.118 8.118 0 0 1-.9-2.415 10.7 10.7 0 0 1-.275-2.38 9.175 9.175 0 0 1 .275-2.206 7.943 7.943 0 0 1 .944-2.484 5.676 5.676 0 0 1 1.726-1.84 4.584 4.584 0 0 1 2.622-.713q4.185 0 4.831 4.1h6.395a8.688 8.688 0 0 0-3.612-6.786 10.876 10.876 0 0 0-3.5-1.679 14.939 14.939 0 0 0-4.071-.553 12.978 12.978 0 0 0-5.153.966A10.837 10.837 0 0 0 179-315.91a11.546 11.546 0 0 0-2.369 4.094 13.026 13.026 0 0 0-.809 4.645 12.058 12.058 0 0 0 .875 4.657 11.4 11.4 0 0 0 2.438 3.841 10.857 10.857 0 0 0 3.8 2.506 13.008 13.008 0 0 0 4.9.9 11.878 11.878 0 0 0 7.775-2.485 10.774 10.774 0 0 0 3.68-7.222h-6.31a6.21 6.21 0 0 1-1.58 3.518z" class="cls-3" data-name="Path 488"/>
        <path id="Path_492" d="M224.89-313.794a7.665 7.665 0 0 0-1.357-3.082 6.387 6.387 0 0 0-2.645-1.979 11.118 11.118 0 0 0-4.3-.713 8.575 8.575 0 0 0-3.773.943 7.571 7.571 0 0 0-3.174 3.013h-.141v-10.625a2.181 2.181 0 0 0-2.174-1.991h-4.358v32.847h6.532v-12.468q0-3.633 1.2-5.221a4.524 4.524 0 0 1 3.864-1.588 3.564 3.564 0 0 1 3.266 1.45 8.327 8.327 0 0 1 .92 4.393v13.433h6.534v-14.39a19.261 19.261 0 0 0-.394-4.022z" class="cls-3" data-name="Path 492"/>
    </g>
</svg>
